<svg width="24" height="24" viewBox="0 0 24 24" fill="none" xmlns="http://www.w3.org/2000/svg">
<g clip-path="url(#clip0_22_829)">
<path d="M2.13501 20.965C0.965662 20.965 0.000488281 20.0184 0.000488281 18.8305V2.18127C0.000488281 1.01193 0.947101 0.0467529 2.13501 0.0467529H17.8005C18.9699 0.0467529 19.935 0.993366 19.935 2.18127V10.0512L19.8608 10.0326C19.5453 9.93979 19.2483 9.90266 18.9142 9.90266H18.8956L18.8771 9.84698H18.8214V2.18127C18.8214 1.643 18.3388 1.16042 17.8005 1.16042H2.13501C1.59674 1.16042 1.11415 1.643 1.11415 2.18127V18.8305C1.11415 19.3688 1.59674 19.8514 2.13501 19.8514H10.3575L10.3761 19.8699C10.5803 20.1484 10.4689 20.3525 10.3947 20.501C10.3204 20.6309 10.2833 20.7237 10.4132 20.8537L10.5246 20.965H2.13501Z" fill="#484847"/>
<path d="M3.3415 4.13015C3.13733 4.13015 2.97028 3.8703 2.97028 3.55476C2.97028 3.23922 3.13733 2.97937 3.3415 2.97937H9.65225C9.85642 2.97937 10.0235 3.23922 10.0235 3.55476C10.0235 3.8703 9.85642 4.13015 9.65225 4.13015H3.3415Z" fill="#484847"/>
<path d="M9.65225 3.03503H3.3415C3.17445 3.03503 3.02596 3.25777 3.02596 3.55474C3.02596 3.85172 3.17445 4.07445 3.3415 4.07445H9.65225C9.8193 4.07445 9.96778 3.85172 9.96778 3.55474C9.96778 3.25777 9.83786 3.03503 9.65225 3.03503ZM3.26725 7.0999C3.1002 7.0999 2.97028 6.85861 2.97028 6.52451C2.97028 6.19041 3.1002 5.94912 3.26725 5.94912H7.79614C7.96319 5.94912 8.09312 6.19041 8.09312 6.52451C8.09312 6.85861 7.96319 7.0999 7.79614 7.0999H3.26725Z" fill="#484847"/>
<path d="M7.79612 6.00483H3.26723C3.1373 6.00483 3.04449 6.22756 3.04449 6.52454C3.04449 6.82152 3.1373 7.04425 3.26723 7.04425H7.79612C7.92605 7.04425 8.01885 6.82152 8.01885 6.52454C8.01885 6.22756 7.90749 6.00483 7.79612 6.00483ZM17.1509 23.9534C16.5012 23.9534 15.7959 23.9162 14.8864 23.842C13.5686 23.7306 12.3621 23.1181 11.1928 21.9859L5.92146 16.8259C4.69643 15.638 4.64074 14.0789 5.73585 12.891C6.19987 12.4084 6.92375 12.1114 7.70332 12.1114C8.48288 12.1114 9.1882 12.4084 9.63366 12.9281C9.65222 12.9467 9.68935 12.9838 9.76359 13.0209C9.78215 13.0395 9.81927 13.058 9.83783 13.0766V10.5894V9.36438C9.83783 8.41776 9.83783 7.45259 9.8564 6.50598C9.87496 5.09534 10.9701 4.0188 12.4178 4.0188H12.4364C13.8285 4.0188 14.8864 5.03966 14.9607 6.43173C14.9792 6.74727 14.9792 7.08137 14.9607 7.41547V7.84237H15.2391C16.2043 7.84237 16.9467 8.17647 17.485 8.88179C17.5035 8.91891 17.6149 8.95603 17.7634 8.95603C17.8191 8.95603 17.8748 8.95603 17.9119 8.93747C18.0789 8.91891 18.246 8.90035 18.3945 8.90035C19.1369 8.90035 19.7866 9.19733 20.3434 9.80984C20.4362 9.90265 20.6404 9.97689 20.826 9.97689H20.9002C21.0301 9.95833 21.1786 9.93977 21.3086 9.93977C22.7006 9.93977 23.8143 10.9235 23.8329 12.2042C23.8885 14.5615 23.9257 16.8816 23.6658 19.1832C23.3503 21.9673 21.8654 23.4522 18.9699 23.8234C18.4316 23.9162 17.8191 23.9534 17.1509 23.9534ZM7.61051 13.1694C7.22073 13.1694 6.84951 13.3179 6.57109 13.5777C6.23699 13.9118 6.05138 14.3016 6.05138 14.7285C6.05138 15.174 6.25555 15.6194 6.62678 15.9907L7.33209 16.696C8.87266 18.218 10.4689 19.7771 12.0652 21.3177C12.8447 22.0601 13.7357 22.5427 14.7194 22.7283C15.4804 22.8768 16.2414 22.9511 16.9838 22.9511C17.652 22.9511 18.3202 22.8954 18.9699 22.7654C21.3271 22.3385 22.4037 21.2063 22.6264 19.0161C22.8306 16.9187 22.812 14.7656 22.7749 12.6868V12.3527C22.7563 11.5917 22.218 11.072 21.457 11.072C21.2529 11.072 21.0673 11.1091 20.8631 11.1834V14.0789C20.8631 14.3387 20.8631 14.8399 20.3434 14.8399H20.3248C20.1578 14.8399 20.0278 14.8028 19.9536 14.71C19.8051 14.5615 19.7866 14.2831 19.7866 14.0603V13.949C19.7866 13.0951 19.8051 12.2228 19.7866 11.3504C19.768 10.5894 19.2297 10.0511 18.4873 10.0511C18.3017 10.0511 18.1161 10.0883 17.949 10.1439V13.1508C17.949 13.4107 17.8933 13.6149 17.7634 13.7448C17.6706 13.8376 17.5407 13.8933 17.3736 13.8933H17.3551C16.8539 13.8747 16.8539 13.355 16.8539 13.1694V11.9444V10.3852C16.8539 10.0326 16.7054 9.66135 16.427 9.38294C16.1671 9.12308 15.8145 8.9746 15.4618 8.9746C15.3133 8.9746 15.1463 8.99316 14.9978 9.04884V10.3852C14.9978 11.0163 14.9978 11.6845 14.9607 12.3341C14.9421 12.5012 14.7936 12.6311 14.6451 12.761C14.5895 12.8167 14.5152 12.8724 14.4595 12.9281L14.4038 12.9838L14.3667 12.891C14.3296 12.8353 14.2739 12.7796 14.2182 12.7425C14.1069 12.6126 13.9769 12.4826 13.9027 12.3341C13.847 12.2228 13.8656 12.0928 13.8656 11.9815V11.833V10.2182C13.8656 9.03028 13.8656 7.80525 13.847 6.59878C13.847 5.70785 13.2716 5.1139 12.4364 5.09534C11.5269 5.09534 10.9144 5.74498 10.9144 6.69159V15.4338L10.6731 15.5823L10.6545 15.5452C10.4875 15.3596 10.3019 15.174 10.1348 14.9884C9.74503 14.58 9.33669 14.1346 8.92834 13.7262C8.55712 13.3736 8.0931 13.1694 7.61051 13.1694Z" fill="#484847"/>
</g>
<defs>
<clipPath id="clip0_22_829">
<rect width="24" height="24" fill="white"/>
</clipPath>
</defs>
</svg>
