<svg width="54" height="50" viewBox="0 0 54 50" fill="none" xmlns="http://www.w3.org/2000/svg">
<path d="M37.3333 47.2C37.3333 48.2309 38.1691 49.0667 39.2 49.0667C40.2309 49.0667 41.0667 48.2309 41.0667 47.2H37.3333ZM8 47.2C8 48.2309 8.83573 49.0667 9.86667 49.0667C10.8976 49.0667 11.7333 48.2309 11.7333 47.2H8ZM11.7333 39.2C11.7333 38.1691 10.8976 37.3333 9.86667 37.3333C8.83573 37.3333 8 38.1691 8 39.2H11.7333ZM28 47.2C28 48.2309 28.8357 49.0667 29.8667 49.0667C30.8976 49.0667 31.7333 48.2309 31.7333 47.2H28ZM31.7333 39.2C31.7333 38.1691 30.8976 37.3333 29.8667 37.3333C28.8357 37.3333 28 38.1691 28 39.2H31.7333ZM3.73333 47.2V43.2H0V47.2H3.73333ZM16.5333 30.4H24.5333V26.6667H16.5333V30.4ZM37.3333 43.2V47.2H41.0667V43.2H37.3333ZM24.5333 30.4C31.6027 30.4 37.3333 36.1307 37.3333 43.2H41.0667C41.0667 34.0688 33.6645 26.6667 24.5333 26.6667V30.4ZM3.73333 43.2C3.73333 36.1307 9.46408 30.4 16.5333 30.4V26.6667C7.40221 26.6667 0 34.0688 0 43.2H3.73333ZM24.5333 30.4H36.5333V26.6667H24.5333V30.4ZM49.3333 43.2V47.2H53.0667V43.2H49.3333ZM36.5333 30.4C43.6027 30.4 49.3333 36.1307 49.3333 43.2H53.0667C53.0667 34.0688 45.6645 26.6667 36.5333 26.6667V30.4ZM11.7333 47.2V39.2H8V47.2H11.7333ZM31.7333 47.2V39.2H28V47.2H31.7333ZM20.5333 21.3333C15.6732 21.3333 11.7333 17.3935 11.7333 12.5334H8C8 19.4555 13.6114 25.0667 20.5333 25.0667V21.3333ZM11.7333 12.5334C11.7333 7.67322 15.6732 3.73333 20.5333 3.73333V0C13.6114 0 8 5.61138 8 12.5334H11.7333ZM20.5333 3.73333C25.3933 3.73333 29.3333 7.67322 29.3333 12.5334H33.0667C33.0667 5.61138 27.4552 0 20.5333 0V3.73333ZM29.3333 12.5334C29.3333 15.5631 27.8037 18.2363 25.4664 19.8221L27.5621 22.9115C30.8803 20.6605 33.0667 16.8526 33.0667 12.5334H29.3333ZM25.4664 19.8221C24.06 20.776 22.3645 21.3333 20.5333 21.3333V25.0667C23.1352 25.0667 25.5571 24.2717 27.5621 22.9115L25.4664 19.8221ZM32.5333 3.73333C37.3933 3.73333 41.3333 7.67322 41.3333 12.5334H45.0667C45.0667 5.61138 39.4552 0 32.5333 0V3.73333ZM41.3333 12.5334C41.3333 15.5631 39.8037 18.2363 37.4664 19.8221L39.5621 22.9115C42.8803 20.6605 45.0667 16.8526 45.0667 12.5334H41.3333ZM37.4664 19.8221C36.06 20.776 34.3645 21.3333 32.5333 21.3333V25.0667C35.1352 25.0667 37.5571 24.2717 39.5621 22.9115L37.4664 19.8221ZM27.0341 5.66264C28.5411 4.45464 30.4504 3.73333 32.5333 3.73333V0C29.5712 0 26.8445 1.02992 24.6992 2.74971L27.0341 5.66264ZM32.5333 21.3333C30.7021 21.3333 29.0067 20.776 27.6003 19.8221L25.5045 22.9115C27.5096 24.2717 29.9315 25.0667 32.5333 25.0667V21.3333Z" fill="black"/>
</svg>
