<svg width="24" height="24" viewBox="0 0 24 24" fill="none" xmlns="http://www.w3.org/2000/svg">
<path d="M12 12.9415C11.943 12.9415 11.8866 12.9289 11.8308 12.9043L3.26037 9.06905C3.09897 8.99705 2.99637 8.83205 2.99997 8.64785C3.00357 8.46605 3.11457 8.30105 3.27597 8.23805L11.8476 4.82945C11.8968 4.81025 11.9478 4.80005 12 4.80005C12.0516 4.80005 12.1032 4.81025 12.1524 4.82945L20.7234 8.23685C20.8884 8.30285 20.9964 8.46365 21 8.64665C21.0048 8.83145 20.9022 8.99705 20.7396 9.06905L12.1686 12.906C12.1152 12.9295 12.0576 12.9415 12 12.9415ZM4.57557 8.68085L11.979 11.994L19.4244 8.68085L12 5.72945L4.57557 8.68085Z" fill="#484847"/>
<path d="M3.26034 12.2941C3.04374 12.1963 2.94234 11.9317 3.03474 11.7043C3.10254 11.5393 3.25794 11.4319 3.43014 11.4319C3.48834 11.4319 3.54474 11.4445 3.59934 11.4691L11.9795 15.2185L20.4017 11.4691C20.4569 11.4439 20.5133 11.4319 20.5715 11.4319C20.7431 11.4319 20.8979 11.5381 20.9651 11.7043C21.0581 11.9317 20.9567 12.1963 20.7395 12.2941L11.9999 16.2049L3.26034 12.2941Z" fill="#484847"/>
<path d="M3.26037 15.288C3.04317 15.1896 2.94177 14.9256 3.03477 14.6994C3.10257 14.5344 3.25797 14.427 3.43017 14.427C3.48837 14.427 3.54477 14.4396 3.59937 14.4636L11.9796 18.2136L20.4018 14.4636C20.4558 14.4402 20.5134 14.427 20.5716 14.427C20.7432 14.427 20.898 14.5344 20.9652 14.6994C21.0582 14.9262 20.9568 15.1908 20.7402 15.288L12 19.2L3.26037 15.288Z" fill="#484847"/>
</svg>
