<svg width="24" height="24" viewBox="0 0 24 24" fill="none" xmlns="http://www.w3.org/2000/svg">
<g clip-path="url(#clip0_22_816)">
<path d="M19.0117 0.24219C19.1797 0.0605498 19.461 0.048831 19.6426 0.2168C19.8242 0.384768 19.836 0.666018 19.668 0.847659L16.0117 4.80469L16.0059 4.8125C15.5586 5.35352 15.252 5.85352 15.1153 6.31055C14.9942 6.71485 15.0117 7.08203 15.1914 7.40235C15.2871 7.57422 15.2559 7.78516 15.1289 7.92383L13.3926 9.80274C13.2227 9.61719 13.0879 9.4668 12.9981 9.36914C12.9571 9.31446 12.9102 9.26172 12.8614 9.21094L12.8574 9.21485C12.834 9.18946 12.8086 9.16602 12.7832 9.14258L14.2676 7.53516C14.0938 7.07031 14.0957 6.57617 14.2559 6.05078C14.4278 5.48047 14.793 4.87305 15.3184 4.24024C15.3301 4.22461 15.3399 4.20899 15.3535 4.19531L19.0078 0.238284L19.0117 0.24219ZM11.1582 10.8418C10.9942 10.6582 11.0098 10.375 11.1934 10.2109C11.377 10.0469 11.6602 10.0625 11.8242 10.2461C13.6621 12.3047 19.3438 18.3965 20.918 20.6738C22.9942 23.6133 19.7793 24.5391 18.7129 23.4688C16.0489 20.8926 10.3926 14.3242 7.90628 11.5391C7.01175 11.918 6.14261 11.9766 5.26956 11.7266C4.33011 11.459 3.41019 10.832 2.47659 9.86914L2.46487 9.85742C1.75393 9.10742 1.19729 8.36719 0.794951 7.63477C0.382842 6.88086 0.130888 6.13477 0.0410446 5.39453C-0.0546585 4.59766 0.0195603 3.85547 0.234404 3.19727C0.486357 2.42383 0.933623 1.76953 1.51956 1.28321C2.1094 0.794925 2.83401 0.478518 3.64261 0.380862C4.31448 0.300784 5.0469 0.369144 5.80472 0.61719C6.85354 0.958987 8.0762 1.8086 9.08987 2.89844C9.83792 3.70117 10.4785 4.64063 10.8594 5.60742C11.2559 6.61524 11.377 7.65821 11.0586 8.63477C10.8711 9.21289 10.5313 9.75586 10.0039 10.2461C9.82229 10.4141 9.54104 10.4023 9.37308 10.2227C9.20511 10.041 9.21683 9.75977 9.39651 9.5918C9.80472 9.21094 10.0664 8.79492 10.209 8.35547C10.4551 7.59961 10.3516 6.76172 10.0274 5.9375C9.68753 5.07422 9.11136 4.23047 8.43558 3.50586C7.52151 2.52539 6.43753 1.76563 5.52347 1.4668C4.89651 1.26367 4.2969 1.20508 3.74808 1.27149C3.11136 1.34961 2.54104 1.59375 2.08597 1.97461C1.62894 2.35547 1.27933 2.86914 1.07815 3.48047C0.904326 4.01367 0.843779 4.62696 0.923857 5.28906C1.00003 5.91406 1.21683 6.55274 1.57229 7.20508C1.94534 7.875 2.45706 8.55274 3.11526 9.2461L3.11917 9.25196C3.94339 10.1016 4.7344 10.6484 5.51761 10.8711C6.25784 11.082 7.01175 11 7.79886 10.6074C7.97854 10.5039 8.21097 10.5391 8.35354 10.6992C10.7793 13.416 16.6797 20.2539 19.293 22.7871C20.4278 23.25 21.0567 22.6797 20.5137 21.6738C19.668 20.1035 12.4024 12.2402 11.1582 10.8418ZM8.80276 14.7695L3.10745 20.9316C3.09573 20.9434 3.08597 20.9551 3.07229 20.9668C2.24026 21.8652 3.71292 23.1738 4.62698 22.2988L10.1582 16.3125L10.752 16.9863L5.2637 22.9258C5.25198 22.9395 5.24026 22.9512 5.22464 22.9648C4.89651 23.2402 4.56643 23.4199 4.23245 23.4941C3.8887 23.5723 3.55081 23.5371 3.22659 23.3848C3.1719 23.3633 3.12112 23.3359 3.0762 23.2949L2.28909 22.5664C2.27737 22.5547 2.26565 22.5449 2.25394 22.5313C1.94925 22.1797 1.80472 21.8047 1.84378 21.4082C1.88089 21.0332 2.08011 20.668 2.45706 20.3164L8.20706 14.0938L8.80276 14.7695ZM14.7715 11.3203L15.1094 10.9551C15.2774 10.7734 15.5606 10.7617 15.7403 10.9297C15.9199 11.0977 15.9336 11.3789 15.7657 11.5605L15.375 11.9824L14.7715 11.3203ZM20.4004 1.54883C20.5684 1.36719 20.8496 1.35547 21.0313 1.52344C21.2129 1.69141 21.2246 1.97266 21.0567 2.1543L17.8516 5.625C17.6836 5.80664 17.4024 5.81836 17.2207 5.65039C17.0391 5.48242 17.0274 5.20117 17.1953 5.01953L20.4004 1.54883ZM21.7871 2.83203C21.9551 2.65039 22.2364 2.63867 22.418 2.80664C22.5996 2.97461 22.6114 3.25586 22.4434 3.4375L19.2403 6.90625C19.0723 7.08789 18.791 7.09961 18.6094 6.93164C18.4278 6.76367 18.416 6.48242 18.584 6.30078L21.7871 2.83203ZM23.2246 4.16602C23.3926 3.98438 23.6739 3.97266 23.8555 4.14063C24.0371 4.3086 24.0489 4.5918 23.8809 4.77149L20.2246 8.73047C20.211 8.74414 20.1973 8.75586 20.1836 8.76953C19.3516 9.57031 18.5567 10.0332 17.7969 10.1641C16.9727 10.3066 16.2168 10.0723 15.5235 9.4668C15.3379 9.30469 15.3203 9.02149 15.4805 8.83789C15.6426 8.65235 15.9258 8.63477 16.1094 8.79492C16.5879 9.21289 17.0996 9.37696 17.6407 9.28125C18.2227 9.18164 18.8633 8.79688 19.5625 8.12305L19.5664 8.11914L23.2207 4.16407L23.2246 4.16602Z" fill="#484847"/>
</g>
<defs>
<clipPath id="clip0_22_816">
<rect width="24" height="24" fill="white"/>
</clipPath>
</defs>
</svg>
