<svg width="24" height="24" viewBox="0 0 24 24" fill="none" xmlns="http://www.w3.org/2000/svg">
<g clip-path="url(#clip0_22_821)">
<path d="M23.2799 6.07349H23.2809C23.4997 6.1215 23.6387 6.33838 23.5905 6.55786L22.3073 12.3811C22.2651 12.5698 22.1 12.7011 21.9117 12.7014H21.6071C21.473 12.7014 21.3472 12.7684 21.2731 12.8801C21.199 12.9918 21.1859 13.1336 21.2379 13.2571L22.9752 17.3713C23.0516 17.5526 22.9875 17.7576 22.8317 17.8645L22.7594 17.9036C22.5785 17.9793 22.3727 17.9151 22.2653 17.759L22.2262 17.6868L20.6412 13.9338C20.5865 13.8046 20.4687 13.7151 20.3326 13.6946L20.2731 13.6897H17.7574C17.6166 13.6897 17.4875 13.7632 17.4156 13.8811L17.3883 13.9338L15.8024 17.6877C15.7367 17.8425 15.5863 17.9368 15.4274 17.9368C15.3753 17.9367 15.3213 17.9259 15.2711 17.9045L15.2692 17.9036C15.0625 17.8163 14.9659 17.5794 15.0533 17.3713L16.7906 13.2571C16.8428 13.1336 16.8296 12.9918 16.7555 12.8801C16.6814 12.7687 16.5563 12.7015 16.4225 12.7014H16.1168C15.8926 12.7014 15.7106 12.5193 15.7106 12.2942C15.7108 12.0693 15.8927 11.8879 16.1168 11.8879H21.2614C21.4491 11.8879 21.6116 11.7568 21.652 11.5735L22.7965 6.38306V6.38208C22.8448 6.16251 23.0618 6.02483 23.2799 6.07349Z" stroke="#484847" stroke-width="0.8" stroke-linejoin="round"/>
<path d="M0.721802 6.07336C0.909601 6.03112 1.10019 6.13076 1.17786 6.30481L1.20422 6.38293L2.34778 11.5734C2.38822 11.7567 2.55069 11.8868 2.7384 11.8868H7.88293C8.10716 11.8868 8.2901 12.069 8.29016 12.2941C8.29016 12.5192 8.10719 12.7013 7.88293 12.7013H7.57825C7.44415 12.7013 7.31837 12.7682 7.24426 12.88C7.17017 12.9918 7.15692 13.1334 7.20911 13.257L8.94836 17.3722C9.0354 17.5779 8.93877 17.8159 8.73157 17.9034C8.67862 17.9258 8.62477 17.9366 8.57336 17.9366C8.41443 17.9366 8.26397 17.8425 8.19836 17.6876L6.6134 13.9337C6.55858 13.804 6.4404 13.7138 6.30383 13.6935L6.24524 13.6896H3.72864C3.58824 13.6898 3.45964 13.7636 3.38782 13.881L3.36047 13.9347L1.77649 17.6866C1.68867 17.8938 1.44938 17.9903 1.24329 17.9034C1.03608 17.816 0.93931 17.5791 1.02649 17.3722L2.76379 13.257C2.81583 13.1336 2.80341 12.9926 2.72961 12.881C2.65551 12.7692 2.52971 12.7013 2.39563 12.7013H2.08997C1.92306 12.7012 1.77572 12.5998 1.71399 12.4493L1.69348 12.382L0.410278 6.55872C0.361896 6.33938 0.501071 6.12141 0.719849 6.07336H0.721802Z" stroke="#484847" stroke-width="0.8" stroke-linejoin="round"/>
<path d="M6.85638 8.55151H17.1415C17.3659 8.55151 17.5486 8.73348 17.5488 8.95776C17.5488 9.18185 17.3663 9.36401 17.1415 9.36401H12.8056C12.5847 9.36403 12.4053 9.54354 12.4052 9.7644V16.7224C12.4054 16.9431 12.5848 17.1218 12.8056 17.1218H13.2597C13.4847 17.1218 13.6677 17.3045 13.6679 17.5291C13.6679 17.7535 13.4852 17.9363 13.2597 17.9363H10.7382C10.5142 17.9362 10.332 17.7538 10.332 17.5291C10.3322 17.3042 10.5147 17.1219 10.7382 17.1218H11.1923C11.4131 17.1218 11.5925 16.9431 11.5927 16.7224V9.7644C11.5927 9.54353 11.4132 9.36401 11.1923 9.36401H6.85638C6.63193 9.36385 6.45013 9.18138 6.45013 8.95776C6.4503 8.73358 6.6322 8.55168 6.85638 8.55151Z" stroke="#484847" stroke-width="0.8" stroke-linejoin="round"/>
</g>
<defs>
<clipPath id="clip0_22_821">
<rect width="24" height="24" fill="white"/>
</clipPath>
</defs>
</svg>
